<svg width="14" height="14" viewBox="0 0 14 14" fill="none" xmlns="http://www.w3.org/2000/svg" id="settings">
<path d="M5.34367 8.65625C5.802 9.11458 6.35409 9.34375 6.99992 9.34375C7.64575 9.34375 8.19784 9.11458 8.65617 8.65625C9.1145 8.19792 9.34367 7.64583 9.34367 7C9.34367 6.35417 9.1145 5.80208 8.65617 5.34375C8.19784 4.88542 7.64575 4.65625 6.99992 4.65625C6.35409 4.65625 5.802 4.88542 5.34367 5.34375C4.88534 5.80208 4.65617 6.35417 4.65617 7C4.65617 7.64583 4.88534 8.19792 5.34367 8.65625ZM11.9687 7.65625L13.3749 8.75C13.5207 8.85417 13.5416 9 13.4374 9.1875L12.0937 11.5C12.0103 11.6458 11.8749 11.6875 11.6874 11.625L10.0311 10.9688C9.59367 11.2812 9.21867 11.5 8.90617 11.625L8.65617 13.375C8.6145 13.5625 8.51034 13.6562 8.34367 13.6562H5.65617C5.4895 13.6562 5.38534 13.5625 5.34367 13.375L5.09367 11.625C4.69784 11.4583 4.32284 11.2396 3.96867 10.9688L2.31242 11.625C2.12492 11.6875 1.9895 11.6458 1.90617 11.5L0.562419 9.1875C0.458252 9 0.479086 8.85417 0.624919 8.75L2.03117 7.65625C2.01034 7.51042 1.99992 7.29167 1.99992 7C1.99992 6.70833 2.01034 6.48958 2.03117 6.34375L0.624919 5.25C0.479086 5.14583 0.458252 5 0.562419 4.8125L1.90617 2.5C1.9895 2.35417 2.12492 2.3125 2.31242 2.375L3.96867 3.03125C4.40617 2.71875 4.78117 2.5 5.09367 2.375L5.34367 0.625C5.38534 0.4375 5.4895 0.34375 5.65617 0.34375H8.34367C8.51034 0.34375 8.6145 0.4375 8.65617 0.625L8.90617 2.375C9.302 2.54167 9.677 2.76042 10.0311 3.03125L11.6874 2.375C11.8749 2.3125 12.0103 2.35417 12.0937 2.5L13.4374 4.8125C13.5416 5 13.5207 5.14583 13.3749 5.25L11.9687 6.34375C11.9895 6.48958 11.9999 6.70833 11.9999 7C11.9999 7.29167 11.9895 7.51042 11.9687 7.65625Z" fill="currentColor"/>
</svg>
